<svg xmlns="http://www.w3.org/2000/svg" fill="none" viewBox="0 0 650 650">
  <path fill="#FEBD13" d="M313.172 153.669c-8.694-8.182-19.277-15.263-28.714-22.622-4.132-3.222-8.824-6.396-12.048-10.569-1.993-2.579-3.361-5.624-3.524-8.911-.195-3.909 1.395-7.935 4.081-10.763 1.743-1.837 3.981-3.333 6.441-4.002 5.765-1.568 12.634-1.203 18.6-1.353l37.561-.858c6.08-.102 12.621.444 18.618-.426 2.516-.365 5.074-1.037 7.053-2.713 1.718-1.454 2.886-3.544 3.826-5.556 2.544-5.446 4.374-11.416 6.469-17.059l12.384-33.274c2.309-6.167 4.481-13.97 8.649-19.135 3.072-3.804 7.521-6.446 12.492-6.428 4.42.016 8.487 1.707 11.526 4.934 1.665 1.768 2.931 3.852 3.96 6.043 2.948 6.277 5.019 13.236 7.373 19.767a2154.899 2154.899 0 0 0 12.691 34.761c1.803 4.858 3.304 11.715 7.036 15.395 2.793 2.753 7.689 3.361 11.434 3.561 7.112.38 14.341.136 21.467.194 9.232.076 18.47.374 27.702.54 6.933.123 14.653-.384 21.462 1.05 3.548.745 7.027 2.42 9.484 5.137 2.639 2.918 4.291 7.378 3.932 11.317-.257 2.811-1.412 5.686-3.22 7.856-3.825 4.588-9.496 8.32-14.168 12.015l-28.755 22.881c-5.416 4.282-11.824 8.532-16.53 13.562-1.454 1.553-2.794 3.213-3.185 5.355-.381 2.088-.136 4.261.251 6.33 1.153 6.181 3.342 12.266 5.002 18.329l10.129 37.218c1.475 5.345 4.338 12.876 4.063 18.363-.208 4.135-2.525 8.489-5.753 11.037-3.456 2.729-7.869 4.254-12.289 3.74-6.981-.812-14.644-7.391-20.445-11.223-7.741-5.113-44.754-30.898-51.112-31.189-3.56-.163-6.679 2.216-9.389 4.252-.377.283-.751.57-1.122.861-5.669 4.728-10.658 10.183-15.736 15.525-35.838 37.709-65.123 89.968-69.922 142.419-3.92 42.833 6.681 82.383 34.515 115.796 30.479 36.587 72.461 57.531 119.691 61.833a221.363 221.363 0 0 0 38.012-.157c4.212-.381 8.411-.882 12.595-1.503 5.928-.89 15.052-3.634 20.426-3.636 3.325-.002 6.557 1.009 8.674 3.697 1.637 2.077 2.512 4.763 2.164 7.402-.777 5.9-6.325 10.011-10.825 13.237-23.041 16.516-44.948 25.432-71.414 34.606-5.12 2.08-10.605 3.486-15.913 5.029-21.394 6.221-42.59 9.949-64.773 11.755-4.309.35-9.182 1.154-13.48.808a253.46 253.46 0 0 1-20.925.562 253.442 253.442 0 0 1-20.899-1.17 251.765 251.765 0 0 1-20.731-2.894 251.723 251.723 0 0 1-20.421-4.599c-61.701-16.241-122.143-55.85-154.607-111.816-28.481-49.099-34.405-105.304-19.725-159.908 20.655-76.831 79.713-136.471 146.065-176.87a345.214 345.214 0 0 1 27.846-15.564c8.37-4.157 17.192-7.833 25.25-12.555l.701-.414Z"/>
  <path fill="#21CEC9" d="M464.784 621.305c-4.068-2.104-21.865-1.606-27.49-1.993-4.075-.281-8.109-.805-12.155-1.357-59.727-8.149-116.806-36.595-153.709-85.219-30.672-40.416-42.138-88.955-35.21-138.933 6.499-46.887 31.127-91.377 61.806-126.749 4.875-5.621 10.093-12.914 15.997-17.369.623 1.06.194 3.248.317 4.551.405 4.29 2.537 8.446 5.925 11.131 3.858 3.057 9.219 4.217 14.017 3.197 7.919-1.684 42.394-25.007 51.751-30.77 2.838-1.749 7.284-5.268 10.571-5.708-5.669 4.728-10.658 10.183-15.736 15.525-35.838 37.709-65.123 89.968-69.922 142.419-3.92 42.833 6.681 82.383 34.515 115.796 30.479 36.587 72.461 57.531 119.691 61.833a221.363 221.363 0 0 0 38.012-.157c4.213-.381 8.411-.882 12.595-1.503 5.928-.89 15.052-3.634 20.426-3.636 3.325-.002 6.557 1.009 8.674 3.697 1.637 2.077 2.512 4.763 2.164 7.402-.777 5.9-6.325 10.011-10.825 13.237-23.041 16.516-44.948 25.432-71.414 34.606Z"/>
  <path fill="#FE338F" d="M370.618 638.897a253.46 253.46 0 0 1-20.925.562 253.442 253.442 0 0 1-20.899-1.17 251.765 251.765 0 0 1-20.731-2.894 251.723 251.723 0 0 1-20.421-4.599c-61.701-16.241-122.143-55.85-154.607-111.816-28.481-49.099-34.405-105.304-19.725-159.908 20.655-76.831 79.713-136.471 146.065-176.87a345.214 345.214 0 0 1 27.846-15.564c8.37-4.157 17.192-7.833 25.25-12.555l.701-.414c7.856 5.925 18.141 12.327 22.257 21.489-1.056 8.33-3.804 21.124-7.582 28.583-68.263 44.959-135.162 106.158-152.369 189.528-10.323 50.015-2.469 101.502 25.872 144.412 33.854 51.257 89.678 85.476 149.505 97.563 3.557.718 17.49 2.102 19.763 3.653ZM192.96 132.436a16.178 16.178 0 0 1 7.128.342c.256.071.511.148.765.231a16.865 16.865 0 0 1 2.214.917 17.006 17.006 0 0 1 1.39.788 16.341 16.341 0 0 1 4.597 4.387 16.329 16.329 0 0 1 1.568 2.78 17.67 17.67 0 0 1 .572 1.493 16.855 16.855 0 0 1 .575 2.326c.044.263.083.526.115.791a17.699 17.699 0 0 1 .112 1.594c.005.267.004.533-.003.8a16.467 16.467 0 0 1-.601 3.941 16.392 16.392 0 0 1-1.544 3.676 16.335 16.335 0 0 1-3.558 4.283 15.675 15.675 0 0 1-1.266.975 17.082 17.082 0 0 1-1.356.846 15.898 15.898 0 0 1-1.433.708 15.74 15.74 0 0 1-2.262.79 16.257 16.257 0 0 1-9.401-.298 16.199 16.199 0 0 1-2.892-1.304 15.481 15.481 0 0 1-1.336-.857 15.692 15.692 0 0 1-1.247-.984 14.88 14.88 0 0 1-.585-.537 16.46 16.46 0 0 1-1.591-1.772 16.428 16.428 0 0 1-1.313-1.985 15.689 15.689 0 0 1-.708-1.422 16.586 16.586 0 0 1-.985-3.016 15.75 15.75 0 0 1-.266-1.565 14.902 14.902 0 0 1-.112-1.584c-.006-.265-.006-.529.002-.794a14.978 14.978 0 0 1 .12-1.584 15.972 15.972 0 0 1 .469-2.334 15.44 15.44 0 0 1 .501-1.507 15.078 15.078 0 0 1 .645-1.45 15.711 15.711 0 0 1 1.226-2.041 16.428 16.428 0 0 1 2.072-2.402c.192-.183.388-.36.589-.533a15.622 15.622 0 0 1 1.251-.978 16.463 16.463 0 0 1 2.759-1.565c.242-.108.486-.21.733-.305a15.128 15.128 0 0 1 1.507-.5c.255-.071.512-.136.77-.195.258-.058.518-.11.779-.156Z"/>
  <path fill="#21CEC9" d="M115.633 225.971a15.227 15.227 0 0 1 2.213-.196 14.083 14.083 0 0 1 1.481.051 15.18 15.18 0 0 1 3.618.758 14.904 14.904 0 0 1 1.376.549 14.58 14.58 0 0 1 1.948 1.068 14.992 14.992 0 0 1 1.769 1.344 14.355 14.355 0 0 1 1.061 1.034 14.31 14.31 0 0 1 .955 1.133 14.708 14.708 0 0 1 .839 1.221 15.725 15.725 0 0 1 .714 1.299 14.073 14.073 0 0 1 .584 1.362 15.613 15.613 0 0 1 .447 1.412 15.082 15.082 0 0 1 .238 6.612 14.792 14.792 0 0 1-.829 2.841c-.092.229-.19.456-.293.681-.103.225-.212.446-.327.665a14.617 14.617 0 0 1-1.169 1.889 15.019 15.019 0 0 1-4.968 4.369 15.71 15.71 0 0 1-1.334.646 15.159 15.159 0 0 1-6.497 1.186 15.145 15.145 0 0 1-4.335-.822 15.99 15.99 0 0 1-1.368-.551 15.639 15.639 0 0 1-1.308-.683 14.928 14.928 0 0 1-2.385-1.732 16.087 16.087 0 0 1-1.054-1.033 15.09 15.09 0 0 1-3.515-6.406 15.918 15.918 0 0 1-.304-1.444 14.92 14.92 0 0 1-.18-2.942 15.06 15.06 0 0 1 .397-2.92 14.398 14.398 0 0 1 .411-1.418 13.937 13.937 0 0 1 .547-1.37 14.487 14.487 0 0 1 .678-1.31 15.593 15.593 0 0 1 .804-1.238 15.892 15.892 0 0 1 .92-1.153 15.987 15.987 0 0 1 1.029-1.057 15.083 15.083 0 0 1 2.343-1.788 14.505 14.505 0 0 1 1.291-.714c.221-.109.444-.212.67-.309.226-.097.454-.189.685-.276a15.938 15.938 0 0 1 1.405-.449 14.693 14.693 0 0 1 1.443-.309ZM378 375.252a15.053 15.053 0 0 1 1.946-.257 15.335 15.335 0 0 1 1.964.001 14.55 14.55 0 0 1 1.946.258 14.983 14.983 0 0 1 6.956 3.461 15.13 15.13 0 0 1 1.38 1.396 14.874 14.874 0 0 1 3.532 7.965 15.235 15.235 0 0 1 .107 1.96 14.628 14.628 0 0 1-.15 1.958 15.171 15.171 0 0 1-.704 2.857 14.915 14.915 0 0 1-12.882 9.887 14.576 14.576 0 0 1-1.452.044 14.672 14.672 0 0 1-1.451-.098 14.496 14.496 0 0 1-2.14-.411 15.437 15.437 0 0 1-1.384-.445 15.055 15.055 0 0 1-1.978-.914 15.492 15.492 0 0 1-1.823-1.194 15.595 15.595 0 0 1-1.111-.937 14.648 14.648 0 0 1-1.013-1.042 15.43 15.43 0 0 1-1.319-1.735 15.56 15.56 0 0 1-.733-1.255 15.75 15.75 0 0 1-.606-1.321 13.946 13.946 0 0 1-.476-1.374c-.068-.233-.13-.467-.187-.702a15.77 15.77 0 0 1-.27-1.428 14.804 14.804 0 0 1-.141-2.175 14.667 14.667 0 0 1 .083-1.451 14.497 14.497 0 0 1 .388-2.145 13.926 13.926 0 0 1 .43-1.388 14.618 14.618 0 0 1 .564-1.34 15.153 15.153 0 0 1 .692-1.279 14.445 14.445 0 0 1 1.262-1.776 15.624 15.624 0 0 1 .98-1.074 15.587 15.587 0 0 1 1.08-.973 14.661 14.661 0 0 1 1.784-1.252 15.103 15.103 0 0 1 2.626-1.239 13.919 13.919 0 0 1 1.391-.422c.235-.059.471-.113.709-.16Z"/>
  <path fill="#FEBD13" d="M269.12 39.12a14.475 14.475 0 0 1 2.814.004 14.505 14.505 0 0 1 2.76.552 14.632 14.632 0 0 1 1.97.762 13.612 13.612 0 0 1 1.242.666 14.188 14.188 0 0 1 2.259 1.678 14.629 14.629 0 0 1 1.456 1.531 13.779 13.779 0 0 1 .838 1.132 13.78 13.78 0 0 1 .724 1.21 13.836 13.836 0 0 1 .602 1.273 15.042 15.042 0 0 1 .474 1.326 14.645 14.645 0 0 1 .6 3.464 15.034 15.034 0 0 1 0 1.41 14.918 14.918 0 0 1-.139 1.401 13.728 13.728 0 0 1-.274 1.381 14.657 14.657 0 0 1-.409 1.35 13.879 13.879 0 0 1-.539 1.3 14.597 14.597 0 0 1-1.041 1.84 14.207 14.207 0 0 1-1.299 1.665 13.505 13.505 0 0 1-.996.996 14.229 14.229 0 0 1-1.664 1.3 14.189 14.189 0 0 1-1.837 1.043 14.635 14.635 0 0 1-1.97.761 14.05 14.05 0 0 1-2.061.465 14.31 14.31 0 0 1-4.218.004 15.375 15.375 0 0 1-1.384-.274 14.583 14.583 0 0 1-2.655-.948 14.258 14.258 0 0 1-2.418-1.448 14.899 14.899 0 0 1-1.602-1.381 14.381 14.381 0 0 1-3.372-5.322 14.493 14.493 0 0 1-.84-4.844 13.861 13.861 0 0 1 .07-1.41 13.74 13.74 0 0 1 .207-1.395 14.514 14.514 0 0 1 .565-2.039 13.923 13.923 0 0 1 .859-1.934 14.208 14.208 0 0 1 1.133-1.786 14.786 14.786 0 0 1 .896-1.09 14.381 14.381 0 0 1 4.509-3.338 14.883 14.883 0 0 1 1.975-.759 14.183 14.183 0 0 1 2.064-.46c.233-.035.467-.063.701-.086Z"/>
</svg>
